# xmcd CD database file
#
# Track frame offsets:
#	182
#	16920
#	37457
#	55357
#
# Disc length: 1106 seconds
#
# Revision: 3
# Processed by: cddbd v1.5.1PL0 Copyright (c) Steve Scherf et al.
# Submitted via: CDex 1.51
#
DISCID=33045004
DTITLE=U2 - Even Better Than the Real Thing
DYEAR=1992
DGENRE=Rock
TTITLE0=Even Better Than the Real Thing
TTITLE1=Salome
TTITLE2=Where Did It All Go Wrong
TTITLE3=Lady With the Spinning Head (Extended Dance Mix)
EXTD=YEAR: 1992
EXTT0=
EXTT1=
EXTT2=
EXTT3=
PLAYORDER=
